# xmcd CD database file
#
# Track frame offsets:
#	150
#	11935
#	26845
#	37506
#	53443
#	67099
#	85839
#	101738
#	113161
#	127319
#	137921
#	151042
#	161704
#	174921
#	189506
#	203705
#	220026
#	237857
#	267661
#	280316
#	296362
#	308921
#	325277
#
# Disc length: 4512 seconds
#
# Revision: 1
# Processed by: cddbd v1.5.1PL0 Copyright (c) Steve Scherf et al.
# Submitted via: jetAudio 5
#
DISCID=4c119e17
DTITLE=Various Artist - Lady Sings The Blues - Disc 2
DYEAR=1900
DGENRE=
TTITLE0=Fly Me to the Moon
TTITLE1=The Man I Love (Strike Up The Band)
TTITLE2=Baby, Won't You Please?
TTITLE3=Drinking Again
TTITLE4=When Your Lover Has Gone
TTITLE5=Blues in the Night
TTITLE6=Night Time is the Right Time
TTITLE7=In Love In Vain (Centennial Summer)
TTITLE8=All Night Long
TTITLE9=A Taste of Honey
TTITLE10='Round Midnight
TTITLE11=Wish Someone Would Care
TTITLE12=Tell It Like It Is
TTITLE13=(No, No) I'm Losing You
TTITLE14=Let Me Down Easy
TTITLE15=I'll Be the Other Woman
TTITLE16=Woman to Woman
TTITLE17=I'd Rather Go Blind
TTITLE18=Your Nobody 'Til Somebody Loves You
TTITLE19=Stormy Weather
TTITLE20=Aged and Mellow Blues
TTITLE21=Misty Blue
TTITLE22=Summertime
EXTD=
EXTT0=
EXTT1=
EXTT2=
EXTT3=
EXTT4=
EXTT5=
EXTT6=
EXTT7=
EXTT8=
EXTT9=
EXTT10=
EXTT11=
EXTT12=
EXTT13=
EXTT14=
EXTT15=
EXTT16=
EXTT17=
EXTT18=
EXTT19=
EXTT20=
EXTT21=
EXTT22=
PLAYORDER=
